<svg width="44" height="34" viewBox="0 0 44 34" fill="none" xmlns="http://www.w3.org/2000/svg">
<g clip-path="url(#clip0_1358_4048)">
<path d="M38.8461 18.3636V0.453613H5.65308V33.5465H38.8461V23.8914C38.7722 23.8914 38.8461 18.3636 38.8461 18.3636Z" fill="#006FCF"/>
<path d="M34.7801 16.4917H37.2936V10.5977H34.5582V11.4183L34.0407 10.5977H31.6751V11.6422L31.2315 10.5977H26.8698C26.7219 10.5977 26.5741 10.6722 26.4263 10.6722C26.2785 10.6722 26.2046 10.7468 26.0567 10.8214C25.9088 10.896 25.8349 10.896 25.6871 10.9706V10.5977H13.1935L12.8239 11.5676L12.4541 10.5977H9.49724V11.6422L9.0538 10.5977H6.68789L5.65308 13.1343V16.4917H7.35344L7.64906 15.6709H8.24044L8.5362 16.4917H21.5473V15.7455L22.0647 16.4917H25.6871V16.0442C25.761 16.1187 25.9088 16.1187 25.9827 16.1933C26.0568 16.2679 26.2046 16.2679 26.2785 16.3425C26.4263 16.4171 26.5743 16.4171 26.7221 16.4171H29.3835L29.6791 15.5964H30.2706L30.5662 16.4171H34.1887V15.6709L34.7801 16.4917ZM38.8461 23.9526V18.4315H18.5163L17.9988 19.1776L17.4813 18.4315H11.5671V24.3255H17.4813L17.9988 23.5795L18.5163 24.3255H22.2126V23.0573H22.0648C22.5822 23.0573 23.0258 22.9827 23.3954 22.8335V24.4002H26.0568V23.6541L26.5743 24.4002H37.5893C38.0328 24.2511 38.4764 24.1763 38.8461 23.9526Z" fill="white"/>
<path d="M37.5893 22.5921H35.5933V23.4024H37.5154C38.3286 23.4024 38.8461 22.8869 38.8461 22.15C38.8461 21.4132 38.4026 21.0448 37.6633 21.0448H36.7762C36.5545 21.0448 36.4065 20.8975 36.4065 20.6766C36.4065 20.4556 36.5543 20.3082 36.776 20.3082H38.4764L38.8461 19.4977H36.8501C36.0369 19.4977 35.5194 20.0134 35.5194 20.6766C35.5194 21.4132 35.9628 21.7816 36.7021 21.7816H37.5893C37.811 21.7816 37.9589 21.929 37.9589 22.1499C38.0328 22.4447 37.8849 22.5921 37.5893 22.5921ZM33.9671 22.5921H31.9711V23.4024H33.8931C34.7062 23.4024 35.2236 22.8869 35.2236 22.15C35.2236 21.4132 34.7802 21.0448 34.0409 21.0448H33.1537C32.932 21.0448 32.7842 20.8975 32.7842 20.6766C32.7842 20.4556 32.932 20.3082 33.1537 20.3082H34.8541L35.2236 19.4977H33.2276C32.4144 19.4977 31.8969 20.0134 31.8969 20.6766C31.8969 21.4132 32.3405 21.7816 33.0798 21.7816H33.967C34.1887 21.7816 34.3365 21.929 34.3365 22.1499C34.4104 22.4447 34.1887 22.5921 33.967 22.5921M31.3795 20.2345V19.424H28.2746V23.3288H31.3795V22.5183H29.1618V21.708H31.3056V20.8975H29.1618V20.1607H31.3795V20.2345ZM26.3525 20.2345C26.7221 20.2345 26.8699 20.4555 26.8699 20.6764C26.8699 20.8975 26.7221 21.1185 26.3525 21.1185H25.2436V20.1607L26.3525 20.2345ZM25.2436 21.929H25.6871L26.87 23.3288H27.9789L26.6482 21.8553C27.3136 21.708 27.6831 21.2659 27.6831 20.6766C27.6831 19.9398 27.1658 19.424 26.3525 19.424H24.2825V23.3288H25.1696L25.2436 21.929ZM22.8779 20.7502C22.8779 21.0448 22.7301 21.2658 22.3606 21.2658H21.1777V20.2345H22.2865C22.6561 20.2345 22.8779 20.4555 22.8779 20.7501M20.2905 19.4239V23.3287H21.1777V22.0025H22.3604C23.1737 22.0025 23.765 21.4869 23.765 20.6764C23.765 19.9396 23.2477 19.3503 22.4343 19.3503L20.2905 19.4239ZM18.9598 23.3287H20.0687L18.5163 21.3395L20.0687 19.4239H18.9598L17.9988 20.6764L17.0378 19.4239H15.9289L17.4813 21.3395L15.9289 23.255H17.0378L17.9988 22.0025L18.9598 23.3287ZM15.6331 20.2344V19.4239H12.5282V23.3287H15.6331V22.5182H13.4153V21.7079H15.5592V20.8974H13.4153V20.1606H15.6331V20.2344ZM33.5973 13.3089L35.1497 15.6665H36.2587V11.7618H35.3716V14.3404L35.1498 13.9721L33.7451 11.7618H32.5624V15.6666H33.4495V13.0142L33.5973 13.3089ZM29.7531 13.2352L30.0488 12.4247L30.3445 13.2352L30.714 14.1193H29.3835L29.7531 13.2352ZM31.3056 15.6665H32.2666L30.5664 11.7617H29.3835L27.6831 15.6665H28.6442L29.0138 14.856H30.9359L31.3056 15.6665ZM27.1656 15.6665L27.5353 14.856H27.3136C26.6482 14.856 26.2785 14.4141 26.2785 13.7509V13.6773C26.2785 13.0141 26.6482 12.5721 27.3136 12.5721H28.2746V11.7617H27.2397C26.0568 11.7617 25.3915 12.5721 25.3915 13.6773V13.7509C25.3915 14.9297 26.0568 15.6665 27.1656 15.6665ZM23.8389 15.6665H24.7261V11.8355H23.8389V15.6665ZM21.9169 12.5721C22.2865 12.5721 22.4343 12.793 22.4343 13.0141C22.4343 13.2351 22.2865 13.4562 21.917 13.4562H20.808V12.4984L21.9169 12.5721ZM20.808 14.2666H21.2514L22.4343 15.6665H23.5433L22.2126 14.193C22.8779 14.0457 23.2476 13.6036 23.2476 13.0141C23.2476 12.2774 22.7301 11.7617 21.9169 11.7617H19.847V15.6665H20.7341L20.808 14.2666ZM19.1817 12.5721V11.7617H16.0767V15.6665H19.1817V14.856H16.9638V14.0457H19.1076V13.2352H16.9638V12.4984H19.1817V12.5721ZM12.4543 15.6665H13.2675L14.3764 12.4984V15.6665H15.2635V11.7618H13.785L12.8978 14.4141L12.0107 11.7618H10.5322V15.6666H11.4193V12.4985L12.4543 15.6665ZM7.64906 13.2352L7.94469 12.4247L8.24044 13.2352L8.61011 14.1193H7.2794L7.64906 13.2352ZM9.20149 15.6665H10.1627L8.46229 11.7618H7.35344L5.65308 15.6666H6.61412L6.98365 14.8561H8.90586L9.20149 15.6665Z" fill="#006FCF"/>
</g>
<defs>
<clipPath id="clip0_1358_4048">
<rect width="42.7005" height="33.0929" fill="white" transform="translate(0.98291 0.453735)"/>
</clipPath>
</defs>
</svg>
