<svg width="48" height="30" viewBox="0 0 48 30" fill="none" xmlns="http://www.w3.org/2000/svg">
<path d="M42.9005 0H4.4327C4.27249 0 4.11199 0 3.95207 0.00093427C3.81688 0.00189685 3.682 0.00339735 3.54713 0.0070778C3.25298 0.0150333 2.9563 0.032388 2.66583 0.0845939C2.37071 0.137706 2.0961 0.224338 1.82819 0.360741C1.56481 0.494682 1.32368 0.669872 1.11472 0.878921C0.905666 1.08797 0.730476 1.3287 0.596564 1.59236C0.460132 1.86027 0.373443 2.13498 0.320699 2.43032C0.268213 2.72088 0.250742 3.01749 0.242815 3.31134C0.239191 3.44621 0.237637 3.58108 0.236757 3.71593C0.235822 3.8762 0.236134 4.03636 0.236134 4.19691V25.8034C0.236134 25.964 0.235822 26.1238 0.236757 26.2844C0.237637 26.4193 0.239191 26.5541 0.242815 26.689C0.250742 26.9826 0.268213 27.2792 0.320699 27.5697C0.373443 27.8651 0.460132 28.1397 0.596564 28.4077C0.730476 28.6713 0.905666 28.9124 1.11472 29.1211C1.32368 29.3305 1.56481 29.5057 1.82819 29.6393C2.0961 29.776 2.37071 29.8627 2.66583 29.9158C2.9563 29.9676 3.25298 29.9853 3.54713 29.9933C3.682 29.9963 3.81688 29.9981 3.95207 29.9988C4.11199 30 4.27249 30 4.4327 30H42.9005C43.0605 30 43.221 30 43.3808 29.9988C43.5157 29.9981 43.6506 29.9963 43.7861 29.9933C44.0796 29.9853 44.3762 29.9676 44.6674 29.9158C44.9621 29.8627 45.2368 29.776 45.5048 29.6393C45.7684 29.5057 46.0088 29.3305 46.2182 29.1211C46.4269 28.9124 46.6021 28.6713 46.7364 28.4077C46.8731 28.1397 46.9597 27.8651 47.0122 27.5697C47.0647 27.2792 47.0818 26.9826 47.0897 26.689C47.0934 26.5541 47.0952 26.4193 47.0958 26.2844C47.0971 26.1238 47.0971 25.964 47.0971 25.8034V4.19691C47.0971 4.03636 47.0971 3.8762 47.0958 3.71593C47.0952 3.58108 47.0934 3.44621 47.0897 3.31134C47.0818 3.01749 47.0647 2.72088 47.0122 2.43032C46.9597 2.13498 46.8731 1.86027 46.7364 1.59236C46.6021 1.3287 46.4269 1.08797 46.2182 0.878921C46.0088 0.669872 45.7684 0.494682 45.5048 0.360741C45.2368 0.224338 44.9621 0.137706 44.6674 0.0845939C44.3762 0.032388 44.0796 0.0150333 43.7861 0.0070778C43.6506 0.00339735 43.5157 0.00189685 43.3808 0.00093427C43.221 0 43.0605 0 42.9005 0Z" fill="black"/>
<path d="M42.9006 1L43.3738 1.00091C43.502 1.00181 43.6302 1.0032 43.7591 1.00671C43.9833 1.01277 44.2456 1.02491 44.4901 1.06874C44.7026 1.10702 44.8809 1.16522 45.0519 1.25231C45.2208 1.33812 45.3755 1.45057 45.5106 1.58548C45.6462 1.72128 45.7588 1.87626 45.8458 2.04701C45.9324 2.21673 45.9902 2.39413 46.0283 2.60822C46.072 2.85005 46.0841 3.11306 46.0902 3.33868C46.0937 3.46602 46.0954 3.59336 46.096 3.72374C46.0972 3.8814 46.0972 4.03898 46.0972 4.19696V25.8034C46.0972 25.9614 46.0972 26.1187 46.096 26.2798C46.0954 26.4071 46.0937 26.5344 46.0902 26.662C46.0841 26.8873 46.072 27.1501 46.0277 27.3948C45.9902 27.606 45.9324 27.7834 45.8453 27.954C45.7586 28.1243 45.6462 28.2791 45.5112 28.4141C45.3753 28.5499 45.2211 28.6621 45.0502 28.7487C44.8804 28.8353 44.7025 28.8935 44.4921 28.9314C44.2426 28.9758 43.9693 28.988 43.7635 28.9936C43.634 28.9965 43.5051 28.9983 43.3731 28.9989C43.2158 29.0001 43.0579 29.0001 42.9006 29.0001H4.43273C4.43064 29.0001 4.4286 29.0001 4.42647 29.0001C4.27093 29.0001 4.11508 29.0001 3.95671 28.9989C3.82758 28.9983 3.69873 28.9966 3.57416 28.9937C3.36364 28.988 3.09018 28.9758 2.84277 28.9316C2.63053 28.8935 2.45259 28.8353 2.28057 28.7475C2.1113 28.6617 1.9572 28.5497 1.82128 28.4135C1.6864 28.2789 1.57432 28.1246 1.48766 27.954C1.40091 27.7836 1.34287 27.6056 1.30471 27.392C1.2606 27.1478 1.24848 26.8859 1.24243 26.6622C1.23897 26.5341 1.23753 26.406 1.23671 26.2787L1.23608 25.9027L1.23611 25.8034V4.19696L1.23608 4.0977L1.23668 3.72255C1.23753 3.59444 1.23897 3.46636 1.24243 3.33836C1.24848 3.11439 1.2606 2.85246 1.30508 2.60621C1.3429 2.39447 1.40091 2.2165 1.48811 2.04525C1.57409 1.87598 1.68637 1.72145 1.82196 1.5859C1.957 1.4508 2.11161 1.33849 2.28196 1.25186C2.45214 1.1652 2.63041 1.10702 2.84266 1.06882C3.08721 1.02489 3.34969 1.01277 3.57448 1.00668C3.70261 1.0032 3.83075 1.00181 3.95792 1.00093L4.43273 1H42.9006Z" fill="white"/>
<path d="M13.029 10.0901C13.4303 9.58828 13.7026 8.91443 13.6307 8.22583C13.0434 8.25504 12.3266 8.61333 11.9117 9.11558C11.5391 9.54569 11.2093 10.2478 11.2953 10.9075C11.9546 10.9647 12.6133 10.5779 13.029 10.0901Z" fill="black"/>
<path d="M13.6231 11.0363C12.6656 10.9793 11.8515 11.5797 11.3942 11.5797C10.9367 11.5797 10.2365 11.065 9.47914 11.0789C8.49341 11.0934 7.57877 11.6507 7.07855 12.5372C6.04969 14.3105 6.80704 16.9409 7.80755 18.3851C8.29342 19.0997 8.87898 19.8864 9.65054 19.8581C10.3795 19.8295 10.6653 19.3861 11.5514 19.3861C12.4369 19.3861 12.6943 19.8581 13.466 19.8438C14.2662 19.8295 14.7665 19.129 15.2524 18.4137C15.8098 17.5992 16.0379 16.8127 16.0523 16.7696C16.0379 16.7553 14.5092 16.1688 14.495 14.4102C14.4806 12.9378 15.6952 12.2374 15.7524 12.1939C15.0665 11.1794 13.9947 11.065 13.6231 11.0363Z" fill="black"/>
<path d="M21.9604 9.04346C24.0416 9.04346 25.4907 10.478 25.4907 12.5666C25.4907 14.6627 24.0118 16.1047 21.9082 16.1047H19.604V19.769H17.9392V9.04346L21.9604 9.04346ZM19.604 14.7073H21.5143C22.9637 14.7073 23.7887 13.9269 23.7887 12.5741C23.7887 11.2214 22.9637 10.4483 21.5217 10.4483H19.604V14.7073Z" fill="black"/>
<path d="M25.9255 17.5468C25.9255 16.1791 26.9736 15.3392 28.8319 15.2351L30.9724 15.1088V14.5068C30.9724 13.6371 30.3852 13.1168 29.4042 13.1168C28.4749 13.1168 27.8951 13.5627 27.7541 14.2615H26.2378C26.327 12.8492 27.531 11.8086 29.4636 11.8086C31.3589 11.8086 32.5704 12.812 32.5704 14.3804V19.7692H31.0318V18.4833H30.9948C30.5415 19.353 29.5528 19.9029 28.5271 19.9029C26.9959 19.9029 25.9255 18.9515 25.9255 17.5468ZM30.9724 16.8407V16.2238L29.0473 16.3426C28.0884 16.4096 27.5459 16.8333 27.5459 17.5022C27.5459 18.1859 28.1108 18.632 28.973 18.632C30.0953 18.632 30.9724 17.8589 30.9724 16.8407Z" fill="black"/>
<path d="M34.023 22.6456V21.3448C34.1418 21.3745 34.4093 21.3745 34.5432 21.3745C35.2864 21.3745 35.6879 21.0624 35.933 20.2597C35.933 20.2448 36.0744 19.784 36.0744 19.7765L33.25 11.9497H34.9891L36.9664 18.3123H36.9959L38.9733 11.9497H40.6679L37.7392 20.1778C37.0705 22.0733 36.2975 22.6828 34.6771 22.6828C34.5432 22.6828 34.1418 22.6678 34.023 22.6456Z" fill="black"/>
</svg>

