<svg id="logo" xmlns="http://www.w3.org/2000/svg" viewBox="0 0 250 150"><path id="direct-debit" d="M113.717,75c-.008,20.407-22.137,34.959-49.43,34.939S14.994,94.248,15,74.933c.007-20.265,19.231-34.9,51.994-34.874l-.009,25.174-7.745-.158c-16.6.573-35.817,7.8-35.821,17.522,0,10.7,18.239,23.565,40.146,23.58,17.719.012,32.192-12.834,32.2-32.152.006-20.672-12.407-29.631-26.52-32.791V40.165C94.918,41.509,113.723,57.13,113.717,75ZM45.337,85.529c0,10.8,12.086,17.079,21.49,17.756l.013-36.617C55.643,67.086,45.34,74.834,45.337,85.529ZM213.083,57.482l.494-2.781c-5.649-2.646-20.4-1.416-20.143,8.533.226,8.628,11.383,11.189,19.782,8.844l-.287-3.033c-2.559.681-13.731,1.578-13.589-5.736C199.518,54.174,211.8,57.051,213.083,57.482Zm1.633-3.563V56.91l7.544.006-.006,15.667,5.338,0,0-15.668,7.4.005v-2.99ZM182,72.411l9.888.007V69.29L182,69.283l0-4.536,9.379.006,0-3.128-9.38-.006,0-4.732,9.966.007V53.765l-14.957-.01-.007,18.653,4.992,0ZM149.14,53.774l-5.589,0-.006,18.574,5.588,0Zm-8.6,9.517c0,5.767-5.878,9.2-12.667,9.2l-10-.007.007-18.574,4.1,0h0l5.9,0C134.667,53.921,140.54,57.561,140.539,63.291Zm-5.863-.181c0-4.3-3.906-6.338-6.915-6.339l-4.3-.235-.005,12.919,3.44-.093C131.743,69.365,134.675,66.669,134.676,63.11Zm5.854,23.518c0,5.768-5.877,9.2-12.665,9.2l-10-.008.006-18.574,5.589,0h0l4.416,0C134.659,77.258,140.532,80.9,140.53,86.628Zm-5.862-.18c0-4.3-3.906-6.337-6.915-6.34l-4.3-.235,0,12.92,3.439-.094C131.735,92.7,134.667,90.007,134.668,86.448Zm69.484,9.676,5.394,0,0-13.8-5.393,0Zm.006-16.7,5.393,0,0-3.558-5.393,0Zm23.719,12.452,0-6.609,4.573,0V82.339l-4.573,0V78.778l-5.51,0,0,3.559-4.3,0v2.932l4.3,0,0,7.235c0,4.887,6.525,5.01,10.238,4.152V93.6C230.885,94.188,227.877,93.638,227.877,91.878Zm-61.867-2-13.834-.009c.272,5.357,11.059,3.448,12.505,1.924V95.04c-2.149,1.016-4.919,1.131-7.992,1.128-5.6,0-10.142-2.861-10.14-7.514,0-4.147,4.185-7.427,10.144-7.423C161.285,81.234,166.365,83.389,166.01,89.879Zm-5.118-2.6c-.234-2.094-1.8-3.27-4.142-3.27-2.54,0-4.456.974-4.535,3.286Zm8.176-22.5,4.28,7.627-5.832,0-2.943-5.553a3.167,3.167,0,0,0-3.055-1.879h-2.064l0,7.43-5.539,0,.006-18.653,10.016.006c2.8,0,8.225.711,8.223,4.934a4.615,4.615,0,0,1-4.378,4.767A5.715,5.715,0,0,1,169.068,64.777Zm-2.5-5.457c0-1.7-1.712-2.523-3.438-2.525l-3.714,0V61.8l3.634,0C164.5,61.8,166.568,60.864,166.569,59.32Zm27.972,29.7c0,4.673-3.686,7.447-8.229,7.444-2.963,0-5.2-.712-6.585-2.265v1.752l-5.393,0,.007-20.139,5.394,0,0,8.3c1.457-1.605,3.789-2.314,6.624-2.312C190.9,81.8,194.543,84.229,194.541,89.02Zm-5.394.152a4.507,4.507,0,0,0-4.727-4.246,4.576,4.576,0,0,0-4.691,3.72v1.039a4.58,4.58,0,0,0,4.688,3.727A4.5,4.5,0,0,0,189.147,89.172Z" style="stroke:#000;stroke-width:0.144387px"/></svg>