<svg width="61" height="32" viewBox="0 0 61 32" fill="none" xmlns="http://www.w3.org/2000/svg">
<path d="M44.16 0H16C7.2 0 0 7.2 0 16C0 24.8 7.2 32 16 32H44.16C52.96 32 60.16 24.8 60.16 16C60.16 7.2 52.96 0 44.16 0Z" fill="white"/>
<path d="M44.16 1.296C46.136 1.296 48.056 1.688 49.864 2.456C51.616 3.2 53.184 4.264 54.544 5.616C55.896 6.968 56.96 8.544 57.704 10.296C58.472 12.104 58.864 14.024 58.864 16C58.864 17.976 58.472 19.896 57.704 21.704C56.96 23.456 55.896 25.024 54.544 26.384C53.192 27.736 51.616 28.8 49.864 29.544C48.056 30.312 46.136 30.704 44.16 30.704H16C14.024 30.704 12.104 30.312 10.296 29.544C8.544 28.8 6.976 27.736 5.616 26.384C4.264 25.032 3.2 23.456 2.456 21.704C1.688 19.896 1.296 17.976 1.296 16C1.296 14.024 1.688 12.104 2.456 10.296C3.2 8.544 4.264 6.976 5.616 5.616C6.968 4.264 8.544 3.2 10.296 2.456C12.104 1.688 14.024 1.296 16 1.296H44.16ZM44.16 0H16C7.2 0 0 7.2 0 16C0 24.8 7.2 32 16 32H44.16C52.96 32 60.16 24.8 60.16 16C60.16 7.2 52.96 0 44.16 0Z" fill="#3C4043"/>
<path d="M28.6874 17.1041V21.9441H27.1514V9.99207H31.2234C32.2554 9.99207 33.1354 10.3361 33.8554 11.0241C34.5914 11.7121 34.9594 12.5521 34.9594 13.5441C34.9594 14.5601 34.5914 15.4001 33.8554 16.0801C33.1434 16.7601 32.2634 17.0961 31.2234 17.0961H28.6874V17.1041ZM28.6874 11.4641V15.6321H31.2554C31.8634 15.6321 32.3754 15.4241 32.7754 15.0161C33.1834 14.6081 33.3914 14.1121 33.3914 13.5521C33.3914 13.0001 33.1834 12.5121 32.7754 12.1041C32.3754 11.6801 31.8714 11.4721 31.2554 11.4721H28.6874V11.4641Z" fill="#3C4043"/>
<path d="M38.9754 13.4961C40.1114 13.4961 41.0074 13.8001 41.6634 14.4081C42.3194 15.0161 42.6474 15.8481 42.6474 16.9041V21.9441H41.1834V20.8081H41.1194C40.4874 21.7441 39.6394 22.2081 38.5834 22.2081C37.6794 22.2081 36.9274 21.9441 36.3194 21.4081C35.7114 20.8721 35.4074 20.2081 35.4074 19.4081C35.4074 18.5601 35.7274 17.8881 36.3674 17.3921C37.0074 16.8881 37.8634 16.6401 38.9274 16.6401C39.8394 16.6401 40.5914 16.8081 41.1754 17.1441V16.7921C41.1754 16.2561 40.9674 15.8081 40.5434 15.4321C40.1194 15.0561 39.6234 14.8721 39.0554 14.8721C38.1994 14.8721 37.5194 15.2321 37.0234 15.9601L35.6714 15.1121C36.4154 14.0321 37.5194 13.4961 38.9754 13.4961ZM36.9914 19.4321C36.9914 19.8321 37.1594 20.1681 37.5034 20.4321C37.8394 20.6961 38.2394 20.8321 38.6954 20.8321C39.3434 20.8321 39.9194 20.5921 40.4234 20.1121C40.9274 19.6321 41.1834 19.0721 41.1834 18.4241C40.7034 18.0481 40.0394 17.8561 39.1834 17.8561C38.5594 17.8561 38.0394 18.0081 37.6234 18.3041C37.1994 18.6161 36.9914 18.9921 36.9914 19.4321Z" fill="#3C4043"/>
<path d="M50.9992 13.7601L45.8792 25.5361H44.2952L46.1992 21.4161L42.8232 13.7601H44.4952L46.9272 19.6321H46.9592L49.3272 13.7601H50.9992Z" fill="#3C4043"/>
<path d="M22.5777 16.128C22.5777 15.6272 22.5329 15.148 22.4497 14.6872H16.0113V17.3272L19.7193 17.328C19.5689 18.2064 19.0849 18.9552 18.3433 19.4544V21.1672H20.5505C21.8393 19.9744 22.5777 18.2112 22.5777 16.128Z" fill="#4285F4"/>
<path d="M18.3446 19.4543C17.7302 19.8687 16.9389 20.1111 16.0133 20.1111C14.2253 20.1111 12.7085 18.9063 12.1653 17.2823H9.88855V19.0487C11.0165 21.2871 13.3349 22.8231 16.0133 22.8231C17.8645 22.8231 19.4198 22.2143 20.5518 21.1663L18.3446 19.4543Z" fill="#34A853"/>
<path d="M11.9507 15.972C11.9507 15.516 12.0267 15.0752 12.1651 14.6608V12.8944H9.88834C9.42194 13.82 9.15955 14.8648 9.15955 15.972C9.15955 17.0792 9.42274 18.124 9.88834 19.0496L12.1651 17.2832C12.0267 16.8688 11.9507 16.428 11.9507 15.972Z" fill="#FABB05"/>
<path d="M16.0133 11.832C17.0237 11.832 17.9285 12.18 18.6429 12.86L20.599 10.9056C19.4109 9.7992 17.8621 9.12 16.0133 9.12C13.3357 9.12 11.0165 10.656 9.88855 12.8944L12.1653 14.6608C12.7085 13.0368 14.2253 11.832 16.0133 11.832Z" fill="#E94235"/>
</svg>
