<svg xmlns="http://www.w3.org/2000/svg" width="31" height="24" viewBox="0 0 31 24" fill="none">
<g clip-path="url(#clip0_67_5642)">
<path d="M5.60983 23.941V22.3526C5.60983 21.7435 5.23931 21.3465 4.6042 21.3465C4.28671 21.3465 3.9427 21.4524 3.70452 21.7966C3.51938 21.5053 3.25481 21.3465 2.85788 21.3465C2.59319 21.3465 2.32873 21.4259 2.11695 21.7171V21.3994H1.56128V23.941H2.11695V22.5378C2.11695 22.0878 2.35513 21.8759 2.72565 21.8759C3.09594 21.8759 3.28132 22.1143 3.28132 22.5378V23.941H3.83699V22.5378C3.83699 22.0878 4.10145 21.8759 4.44546 21.8759C4.81598 21.8759 5.00113 22.1143 5.00113 22.5378V23.941H5.60983ZM13.8389 21.3994H12.9394V20.6317H12.3837V21.3994H11.8809V21.9024H12.3836V23.0674C12.3836 23.6499 12.6218 23.994 13.2569 23.994C13.495 23.994 13.7595 23.9146 13.9449 23.8087L13.786 23.3321C13.6273 23.438 13.4421 23.4645 13.3098 23.4645C13.0452 23.4645 12.9394 23.3057 12.9394 23.0409V21.9024H13.8389V21.3994ZM18.549 21.3464C18.2315 21.3464 18.0198 21.5053 17.8875 21.7171V21.3994H17.3318V23.941H17.8875V22.5114C17.8875 22.0878 18.0726 21.8495 18.4166 21.8495C18.5225 21.8495 18.6548 21.8761 18.7606 21.9025L18.9194 21.373C18.8136 21.3465 18.6548 21.3465 18.549 21.3465M11.4311 21.6113C11.1664 21.426 10.796 21.3466 10.3991 21.3466C9.7641 21.3466 9.34077 21.6643 9.34077 22.1673C9.34077 22.591 9.65827 22.8292 10.2139 22.9087L10.4785 22.9352C10.7696 22.988 10.9284 23.0675 10.9284 23.1999C10.9284 23.3852 10.7167 23.5176 10.3462 23.5176C9.97576 23.5176 9.68466 23.3852 9.4994 23.2529L9.23482 23.6764C9.52592 23.8882 9.92284 23.9941 10.3196 23.9941C11.0606 23.9941 11.484 23.65 11.484 23.1734C11.484 22.7233 11.14 22.485 10.6107 22.4056L10.3462 22.3791C10.108 22.3526 9.92284 22.2997 9.92284 22.1409C9.92284 21.9555 10.108 21.8497 10.3991 21.8497C10.7167 21.8497 11.0342 21.982 11.1929 22.0614L11.4311 21.6113ZM26.1961 21.3466C25.8785 21.3466 25.6669 21.5055 25.5345 21.7172V21.3996H24.9788V23.9412H25.5345V22.5115C25.5345 22.088 25.7198 21.8497 26.0637 21.8497C26.1696 21.8497 26.302 21.8762 26.4078 21.9026L26.5665 21.3732C26.4607 21.3466 26.302 21.3466 26.1961 21.3466ZM19.1046 22.6704C19.1046 23.4381 19.6338 23.9941 20.4542 23.9941C20.8246 23.9941 21.0891 23.9147 21.3537 23.703L21.0891 23.2529C20.8775 23.4117 20.6658 23.4911 20.4277 23.4911C19.9778 23.4911 19.6603 23.1734 19.6603 22.6704C19.6603 22.1939 19.9778 21.8761 20.4277 21.8497C20.6658 21.8497 20.8775 21.929 21.0891 22.088L21.3537 21.6379C21.0891 21.426 20.8246 21.3466 20.4542 21.3466C19.6338 21.3466 19.1046 21.9026 19.1046 22.6704ZM24.238 22.6704V21.3996H23.6824V21.7172C23.4971 21.479 23.2325 21.3466 22.8885 21.3466C22.1741 21.3466 21.6184 21.9026 21.6184 22.6704C21.6184 23.4381 22.1741 23.9941 22.8885 23.9941C23.2589 23.9941 23.5236 23.8618 23.6824 23.6235V23.9412H24.238V22.6704ZM22.2005 22.6704C22.2005 22.2203 22.4916 21.8497 22.9678 21.8497C23.4177 21.8497 23.7353 22.1939 23.7353 22.6704C23.7353 23.1205 23.4177 23.4911 22.9678 23.4911C22.4916 23.4645 22.2005 23.1205 22.2005 22.6704ZM15.559 21.3466C14.818 21.3466 14.2888 21.8761 14.2888 22.6704C14.2888 23.4647 14.8179 23.9941 15.5854 23.9941C15.9558 23.9941 16.3263 23.8882 16.6174 23.65L16.3527 23.2529C16.141 23.4117 15.8765 23.5176 15.6119 23.5176C15.2679 23.5176 14.9239 23.3588 14.8444 22.9086H16.7232V22.6969C16.7497 21.8761 16.2735 21.3466 15.559 21.3466ZM15.5589 21.8231C15.9027 21.8231 16.141 22.035 16.1938 22.4322H14.8708C14.9237 22.088 15.1619 21.8231 15.5589 21.8231ZM29.3448 22.6704V20.3935H28.7891V21.7172C28.6038 21.479 28.3393 21.3466 27.9952 21.3466C27.2808 21.3466 26.7252 21.9026 26.7252 22.6704C26.7252 23.4381 27.2808 23.9941 27.9952 23.9941C28.3658 23.9941 28.6303 23.8618 28.7891 23.6235V23.9412H29.3448V22.6704ZM27.3073 22.6704C27.3073 22.2203 27.5983 21.8497 28.0747 21.8497C28.5245 21.8497 28.842 22.1939 28.842 22.6704C28.842 23.1205 28.5245 23.4911 28.0747 23.4911C27.5983 23.4645 27.3073 23.1205 27.3073 22.6704ZM8.73195 22.6704V21.3996H8.17628V21.7172C7.99102 21.479 7.72644 21.3466 7.38243 21.3466C6.66802 21.3466 6.11235 21.9026 6.11235 22.6704C6.11235 23.4381 6.66802 23.9941 7.38243 23.9941C7.75296 23.9941 8.01753 23.8618 8.17628 23.6235V23.9412H8.73195V22.6704ZM6.66802 22.6704C6.66802 22.2203 6.95911 21.8497 7.43535 21.8497C7.88519 21.8497 8.2028 22.1939 8.2028 22.6704C8.2028 23.1205 7.88519 23.4911 7.43535 23.4911C6.95911 23.4645 6.66802 23.1205 6.66802 22.6704Z" fill="black"/>
<path d="M11.2458 2.09888H19.5809V17.0839H11.2458V2.09888Z" fill="#FF5F00"/>
<path d="M11.775 9.59144C11.775 6.54682 13.2038 3.84627 15.4 2.09886C13.786 0.828062 11.7486 0.0603027 9.52594 0.0603027C4.26009 0.0603027 0 4.32278 0 9.59144C0 14.86 4.26009 19.1226 9.52582 19.1226C11.7485 19.1226 13.7859 18.3548 15.4 17.0839C13.2038 15.363 11.775 12.6361 11.775 9.59144Z" fill="#EB001B"/>
<path d="M30.8265 9.59144C30.8265 14.86 26.5664 19.1226 21.3007 19.1226C19.078 19.1226 17.0406 18.3548 15.4265 17.0839C17.6492 15.3366 19.0516 12.6361 19.0516 9.59144C19.0516 6.54682 17.6227 3.84627 15.4265 2.09886C17.0405 0.828062 19.078 0.0603027 21.3007 0.0603027C26.5664 0.0603027 30.8265 4.34931 30.8265 9.59144Z" fill="#F79E1B"/>
</g>
<defs>
<clipPath id="clip0_67_5642">
<rect width="30.8571" height="24" fill="white"/>
</clipPath>
</defs>
</svg>