<svg width="48" height="32" viewBox="0 0 48 32" fill="none" xmlns="http://www.w3.org/2000/svg">
<g clip-path="url(#clip0_1118_61)">
<mask id="mask0_1118_61" style="mask-type:luminance" maskUnits="userSpaceOnUse" x="0" y="0" width="48" height="32">
<path d="M48 0H0V32H48V0Z" fill="white"/>
</mask>
<g mask="url(#mask0_1118_61)">
<path d="M44 0.699951H4.00002C2.17748 0.699951 0.700012 2.17741 0.700012 3.99995V28C0.700012 29.8225 2.17748 31.2999 4.00002 31.2999H44C45.8225 31.2999 47.3 29.8225 47.3 28V3.99995C47.3 2.17741 45.8225 0.699951 44 0.699951Z" fill="white"/>
<path d="M44 1.4C44.6888 1.40263 45.3485 1.67741 45.8356 2.16443C46.3226 2.65146 46.5974 3.31125 46.6 4V28C46.5974 28.6888 46.3226 29.3485 45.8356 29.8356C45.3485 30.3226 44.6888 30.5974 44 30.6H4C3.31125 30.5974 2.65146 30.3226 2.16443 29.8356C1.67741 29.3485 1.40263 28.6888 1.4 28V4C1.40263 3.31125 1.67741 2.65146 2.16443 2.16443C2.65146 1.67741 3.31125 1.40263 4 1.4H44ZM44 0H4C2.93913 0 1.92172 0.421427 1.17157 1.17157C0.421427 1.92172 0 2.93913 0 4V28C0 29.0609 0.421427 30.0783 1.17157 30.8284C1.92172 31.5786 2.93913 32 4 32H44C45.0609 32 46.0783 31.5786 46.8284 30.8284C47.5786 30.0783 48 29.0609 48 28V4C48 2.93913 47.5786 1.92172 46.8284 1.17157C46.0783 0.421427 45.0609 0 44 0Z" fill="#DDDDDD"/>
</g>
<path fill-rule="evenodd" clip-rule="evenodd" d="M34.9281 21.8598C31.9815 24.0678 27.7099 25.2418 24.0312 25.2418C18.8756 25.2418 14.2331 23.3067 10.7202 20.086C10.4445 19.833 10.6901 19.4877 11.0219 19.6838C14.8119 21.9231 19.4992 23.2719 24.3405 23.2719C27.6063 23.2719 31.1962 22.584 34.4998 21.1612C34.9974 20.9459 35.4153 21.4938 34.9281 21.8598ZM36.1537 20.4385C36.5309 20.9289 35.7344 22.9478 35.3789 23.8496C35.2711 24.1225 35.502 24.2327 35.7456 24.0259C37.326 22.6835 37.7348 19.87 37.4114 19.4635C37.0901 19.0605 34.3269 18.7138 32.6401 19.9162C32.3804 20.1009 32.4252 20.3568 32.7129 20.3212C33.6627 20.2061 35.7771 19.9482 36.1537 20.4385Z" fill="#FF9900"/>
<path fill-rule="evenodd" clip-rule="evenodd" d="M31.8876 16.8234L34.9546 8.89748C35.019 8.73687 35.0519 8.62388 35.0519 8.55779C35.0519 8.44479 34.9868 8.38794 34.8567 8.38794H34.0763C33.9272 8.38794 33.8257 8.4121 33.769 8.459C33.713 8.50662 33.6577 8.61037 33.6017 8.77098L31.7197 14.2622L29.7683 8.77098C29.7123 8.61037 29.657 8.50662 29.601 8.459C29.545 8.4121 29.4428 8.38794 29.2938 8.38794H28.4574C28.3272 8.38794 28.2621 8.44479 28.2621 8.55779C28.2621 8.62388 28.2943 8.73687 28.3594 8.89748L31.0498 15.6345L30.7853 16.3565C30.6271 16.8099 30.4507 17.1211 30.2554 17.291C30.0602 17.4608 29.7858 17.5454 29.433 17.5454C29.2749 17.5454 29.1496 17.5355 29.0572 17.517C28.9641 17.4985 28.8941 17.4886 28.8479 17.4886C28.7086 17.4886 28.6386 17.5781 28.6386 17.7572V18.1253C28.6386 18.2575 28.6617 18.3541 28.7086 18.4152C28.7548 18.4764 28.829 18.5218 28.9319 18.5496C29.1636 18.6149 29.4288 18.649 29.7263 18.649C30.2561 18.649 30.6859 18.5076 31.0155 18.2241C31.3466 17.9419 31.6371 17.4743 31.8876 16.8234Z" fill="#232F3E"/>
<path fill-rule="evenodd" clip-rule="evenodd" d="M20.4385 10.3357C20.3034 9.87808 20.1109 9.48864 19.8596 9.16814C19.6091 8.84764 19.3025 8.60175 18.94 8.4319C18.5781 8.26206 18.1736 8.17749 17.727 8.17749C17.3092 8.17749 16.8997 8.25708 16.5008 8.41769C16.1011 8.5783 15.7246 8.81423 15.3711 9.1255L15.3018 8.6721C15.2738 8.48378 15.1667 8.38926 14.9806 8.38926H14.3674C14.182 8.38926 14.0889 8.48378 14.0889 8.6721V18.1977C14.0889 18.3867 14.182 18.4805 14.3674 18.4805H15.1898C15.376 18.4805 15.4684 18.386 15.4684 18.1977V14.886C16.0724 15.4425 16.7926 15.7211 17.629 15.7211C18.084 15.7211 18.4976 15.6287 18.8693 15.4453C19.2409 15.2613 19.5566 15.004 19.817 14.6736C20.0773 14.3438 20.2796 13.943 20.4231 13.4704C20.5673 12.9986 20.6393 12.4698 20.6393 11.885C20.6407 11.31 20.5729 10.7934 20.4385 10.3357ZM17.3092 14.5883C16.6764 14.5883 16.0633 14.3623 15.4691 13.9089V9.96052C16.0542 9.52631 16.6771 9.30956 17.3372 9.30956C18.6012 9.30956 19.2332 10.1922 19.2332 11.956C19.2325 13.7113 18.5914 14.5883 17.3092 14.5883Z" fill="#232F3E"/>
<path fill-rule="evenodd" clip-rule="evenodd" d="M26.7244 8.73311C26.3058 8.3657 25.6556 8.18164 24.773 8.18164C24.3363 8.18164 23.8995 8.22215 23.4628 8.30174C23.0254 8.38204 22.6586 8.48793 22.3611 8.62011C22.2499 8.66773 22.175 8.71676 22.1379 8.76864C22.1008 8.82052 22.0819 8.9129 22.0819 9.04437V9.42599C22.0819 9.59584 22.1421 9.68112 22.2632 9.68112C22.3002 9.68112 22.3401 9.67401 22.3821 9.6598C22.4241 9.64558 22.4591 9.63421 22.4864 9.62426C23.2024 9.40752 23.8848 9.29879 24.5358 9.29879C25.0929 9.29879 25.4834 9.40254 25.7067 9.61076C25.93 9.81827 26.0413 10.1764 26.0413 10.686V11.6198C25.3911 11.4592 24.8052 11.3796 24.2845 11.3796C23.467 11.3796 22.8168 11.585 22.3331 11.995C21.8502 12.405 21.608 12.9551 21.608 13.6437C21.608 14.2861 21.8033 14.7971 22.1939 15.1794C22.5837 15.5618 23.1135 15.7522 23.7827 15.7522C24.1823 15.7522 24.5841 15.6719 24.9886 15.512C25.3932 15.3521 25.762 15.1247 26.0966 14.8326L26.1666 15.2995C26.1946 15.4786 26.2967 15.5682 26.4738 15.5682H27.0729C27.2584 15.5682 27.3522 15.4736 27.3522 15.2853V10.4458C27.3515 9.67188 27.1422 9.10122 26.7244 8.73311ZM26.0413 13.9706C25.7347 14.2066 25.4142 14.3856 25.0796 14.5086C24.745 14.6315 24.4245 14.6926 24.1179 14.6926C23.7554 14.6926 23.4768 14.596 23.2815 14.4027C23.0862 14.2094 22.989 13.9337 22.989 13.5748C22.989 12.754 23.5139 12.3432 24.5638 12.3432C24.8052 12.3432 25.0537 12.3603 25.3092 12.393C25.5646 12.4264 25.8089 12.4711 26.0413 12.5273V13.9706Z" fill="#232F3E"/>
</g>
<defs>
<clipPath id="clip0_1118_61">
<rect width="48" height="32" fill="white"/>
</clipPath>
</defs>
</svg>
