<svg width="49" height="48" viewBox="0 0 49 48" fill="none" xmlns="http://www.w3.org/2000/svg">
<g clip-path="url(#clip0_1291_5822)">
<path d="M5.6665 6C5.6665 5.448 6.1145 5 6.6665 5H42.6665C43.2185 5 43.6665 5.448 43.6665 6V9H5.6665V6Z" fill="#1474C4"/>
<path d="M5.6665 9H43.6665V32C43.6665 32.552 43.2185 33 42.6665 33H6.6665C6.1145 33 5.6665 32.552 5.6665 32V9Z" fill="#95CAEB"/>
<path d="M7.1665 7C7.1665 6.724 7.3905 6.5 7.6665 6.5C7.9425 6.5 8.1665 6.724 8.1665 7C8.1665 7.276 7.9425 7.5 7.6665 7.5C7.3905 7.5 7.1665 7.276 7.1665 7ZM11.6665 7.5C11.9425 7.5 12.1665 7.276 12.1665 7C12.1665 6.724 11.9425 6.5 11.6665 6.5C11.3905 6.5 11.1665 6.724 11.1665 7C11.1665 7.276 11.3905 7.5 11.6665 7.5ZM9.6665 7.5C9.9425 7.5 10.1665 7.276 10.1665 7C10.1665 6.724 9.9425 6.5 9.6665 6.5C9.3905 6.5 9.1665 6.724 9.1665 7C9.1665 7.276 9.3905 7.5 9.6665 7.5Z" fill="white"/>
<path d="M11.6665 27L11.6665 42C11.6665 42.5523 12.1142 43 12.6665 43H36.6665C37.2188 43 37.6665 42.5523 37.6665 42V27C37.6665 26.4477 37.2188 26 36.6665 26H12.6665C12.1142 26 11.6665 26.4477 11.6665 27Z" fill="#1474C4"/>
<path d="M11.6665 29V33H37.6665V29H11.6665Z" fill="#001B41"/>
<path d="M26.6665 35H13.6665V37H26.6665V35Z" fill="#95CAEB"/>
</g>
<defs>
<clipPath id="clip0_1291_5822">
<rect width="48" height="48" fill="white" transform="translate(0.666504)"/>
</clipPath>
</defs>
</svg>
