<svg xmlns="http://www.w3.org/2000/svg" width="32" height="32" viewBox="0 0 32 32" fill="none">
<path fill-rule="evenodd" clip-rule="evenodd" d="M3.82404 23.5076H1.34351C1.26173 23.5078 1.18269 23.537 1.12048 23.5901C1.05828 23.6432 1.01695 23.7167 1.00389 23.7974L0.00278629 30.1543C-0.00213294 30.1839 -0.00052444 30.2143 0.00750055 30.2432C0.0155255 30.2722 0.0297731 30.299 0.0492472 30.3218C0.0687213 30.3447 0.0929528 30.363 0.120248 30.3756C0.147543 30.3881 0.177243 30.3945 0.207273 30.3944H1.39152C1.56045 30.3944 1.70448 30.2699 1.73115 30.1027L2.00143 28.3886C2.01377 28.3074 2.05483 28.2333 2.11715 28.1798C2.17947 28.1263 2.25892 28.0969 2.34106 28.097H3.127C4.75935 28.097 5.70177 27.3075 5.94893 25.7409C6.05918 25.0563 5.95249 24.5176 5.63242 24.1406C5.28035 23.7263 4.65266 23.5076 3.82404 23.5076ZM4.10854 25.8298C3.9734 26.7189 3.29415 26.7189 2.63623 26.7189H2.26282L2.52599 25.0581C2.53358 25.0097 2.55815 24.9656 2.59529 24.9337C2.63243 24.9018 2.67972 24.8841 2.7287 24.8839H2.90118C3.34927 24.8839 3.77247 24.8839 3.9894 25.1381C4.11921 25.2911 4.15833 25.5169 4.11032 25.8298H4.10854ZM11.2336 25.8014H10.0458C9.99682 25.8016 9.94953 25.8193 9.91239 25.8512C9.87525 25.8832 9.85069 25.9273 9.84309 25.9756L9.78974 26.3064L9.70795 26.1872C9.45011 25.8138 8.87755 25.6894 8.30321 25.6894C6.99271 25.6894 5.87247 26.6834 5.65376 28.0756C5.54173 28.7709 5.70177 29.4359 6.0983 29.9C6.45926 30.3268 6.9767 30.5046 7.59194 30.5046C8.64817 30.5046 9.23496 29.8236 9.23496 29.8236L9.18161 30.1543C9.17698 30.1838 9.1788 30.2139 9.18696 30.2427C9.19512 30.2714 9.20941 30.298 9.22885 30.3206C9.2483 30.3433 9.27243 30.3615 9.29958 30.3739C9.32672 30.3863 9.35625 30.3927 9.3861 30.3926H10.4548C10.5369 30.3928 10.6163 30.3637 10.6789 30.3106C10.7415 30.2575 10.7831 30.1838 10.7962 30.1027L11.4363 26.0397C11.4409 26.0103 11.4391 25.9803 11.4311 25.9517C11.423 25.9231 11.4089 25.8966 11.3896 25.874C11.3704 25.8514 11.3465 25.8332 11.3196 25.8206C11.2926 25.8081 11.2633 25.8015 11.2336 25.8014ZM9.57992 28.1112C9.5335 28.4312 9.37147 28.7232 9.12444 28.9319C8.87741 29.1406 8.56249 29.2516 8.23919 29.2439C7.89423 29.2439 7.61862 29.1336 7.44258 28.9238C7.35239 28.8069 7.28893 28.6717 7.25667 28.5276C7.22442 28.3835 7.22414 28.2341 7.25587 28.0899C7.30119 27.7705 7.46114 27.4786 7.70588 27.2686C7.95062 27.0585 8.26343 26.9447 8.58593 26.9483C8.92378 26.9483 9.19762 27.0603 9.37899 27.2719C9.55858 27.4853 9.63326 27.7823 9.57992 28.1112ZM17.5567 25.7996H16.3636C16.3073 25.7999 16.2519 25.8141 16.2023 25.8407C16.1527 25.8674 16.1104 25.9058 16.0791 25.9525L14.4325 28.3744L13.7355 26.045C13.7137 25.9743 13.6699 25.9125 13.6103 25.8686C13.5508 25.8247 13.4787 25.8012 13.4047 25.8014H12.2311C12.1984 25.8014 12.1661 25.8091 12.137 25.8241C12.1078 25.839 12.0827 25.8607 12.0636 25.8872C12.0445 25.9138 12.0319 25.9446 12.0271 25.977C12.0222 26.0093 12.0251 26.0424 12.0355 26.0734L13.3514 29.9303L12.1156 31.6728C12.0932 31.7038 12.0798 31.7403 12.077 31.7783C12.0741 31.8164 12.0819 31.8545 12.0994 31.8884C12.1169 31.9223 12.1435 31.9507 12.1761 31.9704C12.2088 31.9901 12.2463 32.0004 12.2845 32H13.4759C13.5314 32.0001 13.5862 31.9868 13.6354 31.9611C13.6846 31.9354 13.7269 31.8981 13.7586 31.8524L17.7256 26.125C17.747 26.0941 17.7596 26.058 17.7619 26.0204C17.7642 25.9829 17.7563 25.9455 17.7389 25.9122C17.7215 25.8789 17.6953 25.851 17.6632 25.8314C17.6311 25.8119 17.5943 25.7997 17.5567 25.7996Z" fill="#0F3182"/>
<path fill-rule="evenodd" clip-rule="evenodd" d="M21.5062 23.5076H19.0274C18.9454 23.5074 18.8659 23.5364 18.8033 23.5896C18.7407 23.6427 18.6992 23.7164 18.686 23.7974L17.6832 30.1543C17.6785 30.1838 17.6804 30.2139 17.6885 30.2427C17.6967 30.2714 17.711 30.298 17.7304 30.3206C17.7498 30.3433 17.774 30.3615 17.8011 30.3739C17.8283 30.3863 17.8578 30.3927 17.8876 30.3926H19.1608C19.2178 30.3921 19.2728 30.3715 19.316 30.3344C19.3593 30.2973 19.3881 30.2461 19.3973 30.1899L19.6818 28.3886C19.6942 28.3071 19.7355 28.2328 19.7982 28.1792C19.8609 28.1257 19.9408 28.0965 20.0232 28.097H20.8056C22.4415 28.097 23.3839 27.3057 23.6293 25.7409C23.7396 25.0546 23.6329 24.5176 23.3128 24.1406C22.9607 23.7263 22.3348 23.5076 21.5062 23.5076ZM21.7907 25.8298C21.6573 26.7189 20.9781 26.7189 20.3202 26.7189H19.9468L20.2081 25.0581C20.2154 25.0091 20.2401 24.9644 20.2776 24.932C20.3152 24.8997 20.3631 24.882 20.4126 24.8821H20.5833C21.0314 24.8821 21.4546 24.8821 21.6716 25.1381C21.8014 25.2911 21.8423 25.5169 21.7925 25.8298H21.7907ZM28.9158 25.8014H27.7297C27.6804 25.8012 27.6327 25.8187 27.5952 25.8507C27.5577 25.8826 27.5329 25.927 27.5252 25.9756L27.4719 26.3064L27.3901 26.1872C27.1323 25.8138 26.5597 25.6894 25.9889 25.6894C24.6766 25.6894 23.5564 26.6816 23.3395 28.0756C23.2257 28.7709 23.3857 29.4359 23.7805 29.9C24.1432 30.3268 24.6589 30.5046 25.2741 30.5046C26.3321 30.5046 26.9189 29.8236 26.9189 29.8236L26.8655 30.1543C26.8609 30.1838 26.8627 30.2139 26.8709 30.2427C26.879 30.2714 26.8933 30.298 26.9128 30.3206C26.9322 30.3433 26.9564 30.3615 26.9835 30.3739C27.0107 30.3863 27.0402 30.3927 27.07 30.3926H28.1387C28.2206 30.3927 28.2998 30.3636 28.3621 30.3104C28.4244 30.2573 28.4656 30.1836 28.4783 30.1027L29.1202 26.0397C29.1249 26.0102 29.1231 25.98 29.1149 25.9513C29.1067 25.9226 29.0924 25.896 29.073 25.8733C29.0536 25.8507 29.0294 25.8325 29.0023 25.8201C28.9751 25.8077 28.9456 25.8013 28.9158 25.8014ZM27.2621 28.1112C27.2157 28.4312 27.0536 28.7232 26.8066 28.9319C26.5596 29.1406 26.2446 29.2516 25.9213 29.2439C25.5782 29.2439 25.3025 29.1336 25.1247 28.9238C24.9487 28.7158 24.8829 28.4206 24.938 28.0899C24.9837 27.7707 25.1438 27.479 25.3884 27.269C25.6331 27.059 25.9457 26.945 26.2681 26.9483C26.6059 26.9483 26.8798 27.0603 27.0611 27.2701C27.2425 27.4835 27.3136 27.7823 27.2621 28.1112ZM30.3152 23.6818L29.2981 30.1543C29.2934 30.1838 29.2953 30.2139 29.3034 30.2427C29.3116 30.2714 29.3259 30.298 29.3453 30.3206C29.3647 30.3433 29.3889 30.3615 29.416 30.3739C29.4432 30.3863 29.4727 30.3927 29.5025 30.3926H30.525C30.607 30.3931 30.6864 30.3641 30.7487 30.3109C30.8111 30.2577 30.8522 30.1838 30.8646 30.1027L31.8693 23.7458C31.8739 23.7164 31.8721 23.6862 31.8639 23.6575C31.8558 23.6288 31.8415 23.6022 31.822 23.5795C31.8026 23.5568 31.7785 23.5387 31.7513 23.5263C31.7242 23.5138 31.6946 23.5075 31.6648 23.5076H30.5197C30.4704 23.5074 30.4227 23.5249 30.3851 23.5568C30.3476 23.5888 30.3228 23.6331 30.3152 23.6818Z" fill="#459BD9"/>
<path fill-rule="evenodd" clip-rule="evenodd" d="M12.676 20.4118L13.0423 18.0859L12.2279 18.0682H8.33374L11.0383 0.905415C11.0461 0.852644 11.0727 0.804467 11.1132 0.76981C11.1537 0.735153 11.2055 0.716367 11.2588 0.716931H17.8255C20.0073 0.716931 21.5116 1.17036 22.2976 2.06655C22.6657 2.48619 22.8986 2.9254 23.0124 3.40906C23.1315 3.91583 23.1333 4.5204 23.0177 5.25834L23.0088 5.31346V5.78645L23.3769 5.99449C23.6881 6.15986 23.9353 6.34834 24.1237 6.5635C24.4385 6.92269 24.6412 7.37967 24.7283 7.92023C24.8172 8.47679 24.787 9.14004 24.6412 9.89042C24.5025 10.6738 24.2301 11.4275 23.8357 12.1185C23.4978 12.6839 23.0675 13.1551 22.5572 13.5179C22.07 13.8646 21.4903 14.126 20.8359 14.2949C20.2029 14.4603 19.4792 14.5439 18.6844 14.5439H18.174C17.8085 14.5451 17.4552 14.6755 17.1765 14.9119C16.8985 15.15 16.7139 15.4788 16.6555 15.8401L16.6164 16.0499L15.9691 20.1504L15.9407 20.2997C15.9318 20.3477 15.9193 20.3709 15.8998 20.3886C15.8806 20.4039 15.8567 20.412 15.8322 20.4118H12.676Z" fill="#28356A"/>
<path fill-rule="evenodd" clip-rule="evenodd" d="M24.0364 5.81909C24.016 5.94808 23.9935 6.07671 23.9688 6.20495C23.1029 10.6521 20.1405 12.1884 16.3548 12.1884H14.4308C13.9685 12.1884 13.5773 12.5245 13.5062 12.9815L12.2401 21.0099C12.2288 21.0803 12.2329 21.1524 12.2522 21.2211C12.2715 21.2899 12.3055 21.3536 12.3518 21.4079C12.3981 21.4622 12.4557 21.5057 12.5206 21.5356C12.5854 21.5654 12.656 21.5808 12.7274 21.5806H16.1432C16.3391 21.5809 16.5286 21.5112 16.6776 21.384C16.8266 21.2569 16.9253 21.0807 16.9558 20.8872L16.9896 20.7147L17.6333 16.6303L17.6742 16.4062C17.7047 16.2127 17.8034 16.0365 17.9524 15.9094C18.1014 15.7822 18.2909 15.7125 18.4868 15.7127H18.9971C22.308 15.7127 24.9006 14.3685 25.6581 10.4779C25.9746 8.85262 25.811 7.49589 24.9735 6.54102C24.708 6.24619 24.3911 6.00216 24.0382 5.82087L24.0364 5.81909Z" fill="#459BD9"/>
<path fill-rule="evenodd" clip-rule="evenodd" d="M22.8204 5.00745C22.5443 4.92745 22.2634 4.86509 21.9793 4.82075C21.4169 4.73414 20.8485 4.69252 20.2794 4.69628H15.1352C14.9391 4.69527 14.7492 4.76474 14.6 4.89203C14.4509 5.01932 14.3524 5.19596 14.3226 5.38976L13.2273 12.3246L13.197 12.529C13.231 12.3082 13.3429 12.1068 13.5125 11.9614C13.6821 11.8159 13.8982 11.7359 14.1217 11.736H16.0474C19.8331 11.736 22.7955 10.1997 23.6615 5.7525C23.6881 5.62092 23.7095 5.49289 23.729 5.36842C23.4404 5.21632 23.1346 5.09531 22.8204 5.00745Z" fill="#22284F"/>
<path fill-rule="evenodd" clip-rule="evenodd" d="M14.3194 5.3897C14.3492 5.1959 14.4477 5.01927 14.5968 4.89198C14.746 4.76469 14.9359 4.69522 15.132 4.69623H20.2797C20.8879 4.69623 21.4587 4.73712 21.9779 4.8207C22.2621 4.86718 22.5435 4.92951 22.8207 5.0074L23.0145 5.06786C23.2706 5.15321 23.5071 5.25279 23.7258 5.36837C23.9836 3.72535 23.7258 2.60512 22.8367 1.59335C21.857 0.476667 20.0877 0.000122348 17.8259 0.000122348H11.2592C11.0353 -4.9895e-05 10.8188 0.0797683 10.6486 0.225183C10.4784 0.370598 10.3657 0.572039 10.331 0.793178L7.59617 18.132C7.58331 18.2125 7.58807 18.2948 7.61012 18.3733C7.63217 18.4518 7.67099 18.5246 7.72391 18.5866C7.77682 18.6487 7.84256 18.6985 7.91659 18.7327C7.99063 18.7668 8.07119 18.7845 8.15273 18.7845H12.2069L14.3194 5.3897Z" fill="#0F3182"/>
</svg>