<svg width="36" height="36" viewBox="0 0 36 36" fill="none" xmlns="http://www.w3.org/2000/svg">
    <g clip-path="url(#clip0_391_35137)">
        <path d="M32.25 18C32.25 16.4633 33.177 15.1455 34.5 14.5665V7.5H11.496C11.0985 7.5 10.7167 7.65825 10.4355 7.9395L9.375 9V27L10.4355 28.0605C10.7167 28.3418 11.0985 28.5 11.496 28.5H34.5V21.4335C33.177 20.8545 32.25 19.5367 32.25 18Z" fill="#95CAEB"/>
        <path d="M21 25.5C25.1421 25.5 28.5 22.1421 28.5 18C28.5 13.8579 25.1421 10.5 21 10.5C16.8579 10.5 13.5 13.8579 13.5 18C13.5 22.1421 16.8579 25.5 21 25.5Z" fill="#001B41"/>
        <path d="M8.3145 7.9395C8.03325 7.65825 7.6515 7.5 7.254 7.5H1.5V14.5665C2.823 15.1455 3.75 16.4633 3.75 18C3.75 19.5367 2.823 20.8545 1.5 21.4335V28.5H7.254C7.6515 28.5 8.03325 28.3418 8.3145 28.0605L9.375 27V9L8.3145 7.9395Z" fill="#1474C4"/>
        <path d="M9.375 14.25C9.168 14.25 9 14.082 9 13.875V10.125C9 9.918 9.168 9.75 9.375 9.75C9.582 9.75 9.75 9.918 9.75 10.125V13.875C9.75 14.082 9.582 14.25 9.375 14.25ZM9.75 19.875V16.125C9.75 15.918 9.582 15.75 9.375 15.75C9.168 15.75 9 15.918 9 16.125V19.875C9 20.082 9.168 20.25 9.375 20.25C9.582 20.25 9.75 20.082 9.75 19.875ZM9.75 25.875V22.125C9.75 21.918 9.582 21.75 9.375 21.75C9.168 21.75 9 21.918 9 22.125V25.875C9 26.082 9.168 26.25 9.375 26.25C9.582 26.25 9.75 26.082 9.75 25.875Z" fill="white"/>
        <path d="M17.625 21.75C17.529 21.75 17.433 21.7133 17.3595 21.6405C17.2132 21.4943 17.2132 21.2565 17.3595 21.1102L24.1095 14.3602C24.2557 14.214 24.4935 14.214 24.6398 14.3602C24.786 14.5065 24.786 14.7443 24.6398 14.8905L17.8898 21.6405C17.8163 21.714 17.721 21.75 17.625 21.75ZM25.5 20.625C25.5 19.5915 24.6593 18.75 23.625 18.75C22.5908 18.75 21.75 19.5915 21.75 20.625C21.75 21.6585 22.5908 22.5 23.625 22.5C24.6593 22.5 25.5 21.6585 25.5 20.625ZM24.75 20.625C24.75 21.2453 24.2453 21.75 23.625 21.75C23.0047 21.75 22.5 21.2453 22.5 20.625C22.5 20.0047 23.0047 19.5 23.625 19.5C24.2453 19.5 24.75 20.0047 24.75 20.625ZM20.25 15.375C20.25 14.3415 19.4093 13.5 18.375 13.5C17.3408 13.5 16.5 14.3415 16.5 15.375C16.5 16.4085 17.3408 17.25 18.375 17.25C19.4093 17.25 20.25 16.4085 20.25 15.375ZM19.5 15.375C19.5 15.9952 18.9952 16.5 18.375 16.5C17.7548 16.5 17.25 15.9952 17.25 15.375C17.25 14.7548 17.7548 14.25 18.375 14.25C18.9952 14.25 19.5 14.7548 19.5 15.375Z" fill="#95CAEB"/>
    </g>
    <defs>
        <clipPath id="clip0_391_35137">
            <rect width="36" height="36" fill="white"/>
        </clipPath>
    </defs>
</svg>
