<?xml version="1.0" encoding="UTF-8"?>
<svg xmlns="http://www.w3.org/2000/svg" width="467" height="287" viewBox="0 0 467 287" fill="none">
  <path d="M124.252 8.56335H448.542C451.479 8.56335 453.858 11.531 453.858 15.1949V223.405C453.858 225.614 452.067 227.405 449.858 227.405H122.936C120.727 227.405 118.936 225.614 118.936 223.405V15.1949C118.936 11.531 121.315 8.56335 124.252 8.56335Z" fill="#95CAEB" fill-opacity="0.22"></path>
  <path d="M107.125 25.6901H431.415C434.352 25.6901 436.731 28.6577 436.731 32.3216V240.532C436.731 242.741 434.941 244.532 432.731 244.532H105.809C103.6 244.532 101.809 242.741 101.809 240.532V32.3216C101.809 28.6577 104.188 25.6901 107.125 25.6901Z" fill="#95CAEB" fill-opacity="0.42"></path>
  <g filter="url(#filter0_d_563_528)">
    <path d="M420.556 63.7495V257.852C420.556 259.955 418.853 261.658 416.75 261.658H89.4396C87.3368 261.658 85.6337 259.955 85.6337 257.852V63.7495H420.556Z" fill="white"></path>
    <path d="M89.4396 42.8168H416.75C418.853 42.8168 420.556 44.52 420.556 46.6228V63.7495H85.6337V46.6228C85.6337 44.52 87.3368 42.8168 89.4396 42.8168Z" fill="#001B41"></path>
    <path d="M96.0999 55.6618C97.4136 55.6618 98.4786 54.5969 98.4786 53.2831C98.4786 51.9694 97.4136 50.9044 96.0999 50.9044C94.7862 50.9044 93.7212 51.9694 93.7212 53.2831C93.7212 54.5969 94.7862 55.6618 96.0999 55.6618Z" stroke="#95CAEB"></path>
    <path d="M105.615 55.6618C106.929 55.6618 107.994 54.5969 107.994 53.2831C107.994 51.9694 106.929 50.9044 105.615 50.9044C104.301 50.9044 103.236 51.9694 103.236 53.2831C103.236 54.5969 104.301 55.6618 105.615 55.6618Z" stroke="#95CAEB"></path>
    <path d="M115.13 55.6618C116.443 55.6618 117.508 54.5969 117.508 53.2831C117.508 51.9694 116.443 50.9044 115.13 50.9044C113.816 50.9044 112.751 51.9694 112.751 53.2831C112.751 54.5969 113.816 55.6618 115.13 55.6618Z" stroke="#95CAEB"></path>
  </g>
  <path d="M110.162 143.056C108.708 143.056 107.518 141.866 107.518 140.412C107.518 138.958 108.708 137.768 110.162 137.768H219.904C221.359 137.768 222.549 138.958 222.549 140.412C222.549 141.866 221.359 143.056 219.904 143.056H110.162Z" fill="#DBE2E8"></path>
  <path d="M110.162 156.278C108.708 156.278 107.518 155.088 107.518 153.634C107.518 152.179 108.708 150.99 110.162 150.99H219.904C221.359 150.99 222.549 152.179 222.549 153.634C222.549 155.088 221.359 156.278 219.904 156.278H110.162Z" fill="#DBE2E8"></path>
  <path d="M110.162 169.5C108.708 169.5 107.518 168.31 107.518 166.856C107.518 165.401 108.708 164.211 110.162 164.211H219.904C221.359 164.211 222.549 165.401 222.549 166.856C222.549 168.31 221.359 169.5 219.904 169.5H110.162Z" fill="#DBE2E8"></path>
  <path d="M110.162 182.722C108.708 182.722 107.518 181.532 107.518 180.078C107.518 178.623 108.708 177.433 110.162 177.433H188.172C189.626 177.433 190.816 178.623 190.816 180.078C190.816 181.532 189.626 182.722 188.172 182.722H110.162Z" fill="#DBE2E8"></path>
  <path d="M380.703 139.021C381.284 139.021 381.759 139.496 381.759 140.077V241.431C381.759 242.012 381.284 242.487 380.703 242.487H261.4C260.82 242.487 260.345 242.012 260.345 241.431V140.077C260.345 139.496 260.82 139.021 261.4 139.021H380.703ZM380.703 137.965H261.4C260.239 137.965 259.289 138.915 259.289 140.077V241.431C259.289 242.593 260.239 243.543 261.4 243.543H380.703C381.865 243.543 382.815 242.593 382.815 241.431V140.077C382.815 138.915 381.865 137.965 380.703 137.965Z" fill="#97A3B4"></path>
  <mask id="mask0_563_528" style="mask-type:luminance" maskUnits="userSpaceOnUse" x="295" y="156" width="52" height="51">
    <path d="M346.391 156.298H295.713V206.976H346.391V156.298Z" fill="white"></path>
  </mask>
  <g mask="url(#mask0_563_528)">
    <path d="M331.61 174.247C328.115 174.247 325.275 171.406 325.275 167.912C325.275 164.417 328.115 161.577 331.61 161.577C335.104 161.577 337.944 164.417 337.944 167.912C337.944 171.406 335.104 174.247 331.61 174.247ZM331.61 162.633C328.696 162.633 326.331 164.998 326.331 167.912C326.331 170.826 328.696 173.191 331.61 173.191C334.524 173.191 336.889 170.826 336.889 167.912C336.889 164.998 334.524 162.633 331.61 162.633Z" fill="#001B41"></path>
    <path d="M316.671 170.456C316.259 169.781 315.277 169.77 314.865 170.456C311.233 176.443 297.814 198.54 297.814 198.54H321.041C321.041 198.54 324.325 193.166 327.397 188.141L316.671 170.467V170.456Z" fill="#95CAEB"></path>
    <path d="M344.279 198.529L333.563 181.003C333.151 180.328 332.18 180.328 331.768 181.003C329.044 185.459 321.052 198.54 321.052 198.54H344.279V198.529Z" fill="#1474C4"></path>
  </g>
  <path d="M116.209 95.7427C116.209 97.2823 114.542 98.2446 113.209 97.4748L99.9849 89.84C98.6516 89.0702 98.6516 87.1457 99.9849 86.3759L113.209 78.7411C114.542 77.9713 116.209 78.9336 116.209 80.4732L116.209 95.7427Z" fill="#D9D9D9"></path>
  <path d="M122.922 80.2819C122.922 78.7423 124.589 77.78 125.922 78.5498L139.146 86.1846C140.479 86.9544 140.479 88.8789 139.146 89.6487L125.922 97.2835C124.589 98.0533 122.922 97.0911 122.922 95.5515L122.922 80.2819Z" fill="#D9D9D9"></path>
  <g filter="url(#filter1_d_563_528)">
    <path d="M419.605 121.79C434.315 121.79 446.246 109.858 446.246 95.1485C446.246 80.4385 434.315 68.5069 419.605 68.5069H174.122C159.412 68.5069 147.48 80.4385 147.48 95.1485C147.48 109.858 159.412 121.79 174.122 121.79H419.605Z" fill="#1474C4"></path>
  </g>
  <path d="M211.542 88.3242V91.7607C211.542 92.1182 211.53 92.4668 211.507 92.8066C211.489 93.1465 211.469 93.4102 211.445 93.5977H211.56C211.765 93.2578 212.017 92.9795 212.315 92.7627C212.614 92.54 212.948 92.373 213.317 92.2617C213.692 92.1504 214.091 92.0947 214.513 92.0947C215.257 92.0947 215.89 92.2207 216.411 92.4727C216.933 92.7188 217.331 93.1025 217.606 93.624C217.888 94.1455 218.028 94.8223 218.028 95.6543V102H215.963V96.041C215.963 95.2852 215.808 94.7197 215.497 94.3447C215.187 93.9639 214.706 93.7734 214.056 93.7734C213.429 93.7734 212.931 93.9053 212.562 94.1689C212.198 94.4268 211.938 94.8105 211.779 95.3203C211.621 95.8242 211.542 96.4395 211.542 97.166V102H209.477V88.3242H211.542ZM224.541 100.506C224.811 100.506 225.077 100.482 225.341 100.436C225.604 100.383 225.845 100.321 226.062 100.251V101.815C225.833 101.915 225.537 102 225.174 102.07C224.811 102.141 224.433 102.176 224.04 102.176C223.489 102.176 222.994 102.085 222.555 101.903C222.115 101.716 221.767 101.396 221.509 100.945C221.251 100.494 221.122 99.8701 221.122 99.0732V93.8438H219.795V92.9209L221.219 92.1914L221.896 90.1084H223.196V92.2705H225.982V93.8438H223.196V99.0469C223.196 99.5391 223.319 99.9053 223.565 100.146C223.812 100.386 224.137 100.506 224.541 100.506ZM231.66 100.506C231.93 100.506 232.196 100.482 232.46 100.436C232.724 100.383 232.964 100.321 233.181 100.251V101.815C232.952 101.915 232.656 102 232.293 102.07C231.93 102.141 231.552 102.176 231.159 102.176C230.608 102.176 230.113 102.085 229.674 101.903C229.234 101.716 228.886 101.396 228.628 100.945C228.37 100.494 228.241 99.8701 228.241 99.0732V93.8438H226.914V92.9209L228.338 92.1914L229.015 90.1084H230.315V92.2705H233.102V93.8438H230.315V99.0469C230.315 99.5391 230.438 99.9053 230.685 100.146C230.931 100.386 231.256 100.506 231.66 100.506ZM240.15 92.0859C241.305 92.0859 242.23 92.5078 242.928 93.3516C243.631 94.1953 243.982 95.4492 243.982 97.1133C243.982 98.2148 243.818 99.1436 243.49 99.8994C243.168 100.649 242.714 101.218 242.128 101.604C241.548 101.985 240.871 102.176 240.098 102.176C239.605 102.176 239.178 102.111 238.814 101.982C238.451 101.854 238.141 101.687 237.883 101.481C237.625 101.271 237.408 101.042 237.232 100.796H237.109C237.139 101.03 237.165 101.291 237.188 101.578C237.218 101.859 237.232 102.117 237.232 102.352V106.315H235.158V92.2705H236.846L237.136 93.6152H237.232C237.414 93.3398 237.634 93.085 237.892 92.8506C238.155 92.6162 238.472 92.4316 238.841 92.2969C239.216 92.1562 239.652 92.0859 240.15 92.0859ZM239.597 93.7734C239.028 93.7734 238.571 93.8877 238.226 94.1162C237.886 94.3389 237.637 94.6758 237.479 95.127C237.326 95.5781 237.244 96.1436 237.232 96.8232V97.1133C237.232 97.834 237.306 98.4463 237.452 98.9502C237.604 99.4482 237.854 99.8291 238.199 100.093C238.551 100.351 239.025 100.479 239.623 100.479C240.127 100.479 240.543 100.342 240.871 100.066C241.205 99.791 241.454 99.3984 241.618 98.8887C241.782 98.3789 241.864 97.7783 241.864 97.0869C241.864 96.0381 241.677 95.2236 241.302 94.6436C240.933 94.0635 240.364 93.7734 239.597 93.7734ZM252.912 99.2227C252.912 99.8613 252.757 100.4 252.446 100.84C252.136 101.279 251.682 101.613 251.084 101.842C250.492 102.064 249.766 102.176 248.904 102.176C248.225 102.176 247.639 102.126 247.146 102.026C246.66 101.933 246.2 101.786 245.767 101.587V99.8027C246.229 100.02 246.748 100.207 247.322 100.365C247.902 100.523 248.45 100.603 248.966 100.603C249.646 100.603 250.135 100.497 250.434 100.286C250.732 100.069 250.882 99.7822 250.882 99.4248C250.882 99.2139 250.82 99.0264 250.697 98.8623C250.58 98.6924 250.357 98.5195 250.029 98.3438C249.707 98.1621 249.232 97.9453 248.605 97.6934C247.99 97.4473 247.472 97.2012 247.05 96.9551C246.628 96.709 246.309 96.4131 246.092 96.0674C245.875 95.7158 245.767 95.2676 245.767 94.7227C245.767 93.8613 246.106 93.208 246.786 92.7627C247.472 92.3115 248.377 92.0859 249.502 92.0859C250.1 92.0859 250.662 92.1475 251.189 92.2705C251.723 92.3877 252.244 92.5605 252.754 92.7891L252.104 94.3447C251.664 94.1514 251.222 93.9932 250.776 93.8701C250.337 93.7412 249.889 93.6768 249.432 93.6768C248.898 93.6768 248.491 93.7588 248.21 93.9229C247.935 94.0869 247.797 94.3213 247.797 94.626C247.797 94.8545 247.864 95.0479 247.999 95.2061C248.134 95.3643 248.365 95.5225 248.693 95.6807C249.027 95.8389 249.49 96.0352 250.082 96.2695C250.662 96.4922 251.163 96.7266 251.585 96.9727C252.013 97.2129 252.341 97.5088 252.569 97.8604C252.798 98.2119 252.912 98.666 252.912 99.2227ZM254.846 100.91C254.846 100.43 254.969 100.093 255.215 99.8994C255.467 99.7002 255.771 99.6006 256.129 99.6006C256.486 99.6006 256.791 99.7002 257.043 99.8994C257.301 100.093 257.43 100.43 257.43 100.91C257.43 101.379 257.301 101.719 257.043 101.93C256.791 102.135 256.486 102.237 256.129 102.237C255.771 102.237 255.467 102.135 255.215 101.93C254.969 101.719 254.846 101.379 254.846 100.91ZM254.846 93.3867C254.846 92.9004 254.969 92.5576 255.215 92.3584C255.467 92.1592 255.771 92.0596 256.129 92.0596C256.486 92.0596 256.791 92.1592 257.043 92.3584C257.301 92.5576 257.43 92.9004 257.43 93.3867C257.43 93.8496 257.301 94.1865 257.043 94.3975C256.791 94.6025 256.486 94.7051 256.129 94.7051C255.771 94.7051 255.467 94.6025 255.215 94.3975C254.969 94.1865 254.846 93.8496 254.846 93.3867ZM265.489 89.1504L260.699 102H258.766L263.556 89.1504H265.489ZM272.521 89.1504L267.73 102H265.797L270.587 89.1504H272.521Z" fill="white"></path>
  <path d="M192.504 88.3859V86.9757C192.504 83.0836 189.265 79.9247 185.273 79.9247C181.282 79.9247 178.042 83.0836 178.042 86.9757V88.3859H173.703V105.308C173.703 106.084 174.354 106.719 175.149 106.719H195.397C196.192 106.719 196.843 106.084 196.843 105.308V88.3859H192.504ZM180.934 86.9757C180.934 84.6348 182.872 82.7451 185.273 82.7451C187.674 82.7451 189.612 84.6348 189.612 86.9757V88.3859H180.934V86.9757ZM186.719 101.078C186.719 101.853 186.069 102.488 185.273 102.488C184.478 102.488 183.827 101.853 183.827 101.078V94.0267C183.827 93.2511 184.478 92.6165 185.273 92.6165C186.069 92.6165 186.719 93.2511 186.719 94.0267V101.078Z" fill="#95CAEB"></path>
  <path d="M124.645 235.968C130.953 235.968 136.062 230.859 136.062 224.55C136.062 218.242 130.953 213.133 124.645 213.133C118.336 213.133 113.227 218.242 113.227 224.55C113.227 230.859 118.336 235.968 124.645 235.968Z" fill="#FFAA00"></path>
  <path d="M120.858 224.16L122.875 228.071L128.431 221.049" stroke="white" stroke-linecap="round" stroke-linejoin="round"></path>
  <path d="M64.701 0H3.80594C1.70398 0 0 1.70398 0 3.80594V64.701C0 66.8029 1.70398 68.5069 3.80594 68.5069H64.701C66.8029 68.5069 68.5069 66.8029 68.5069 64.701V3.80594C68.5069 1.70398 66.8029 0 64.701 0Z" fill="#EF8300"></path>
  <path d="M17.1268 25.0634H50.677V48.5485C50.677 50.4021 49.1756 51.9035 47.322 51.9035H20.4818C18.6282 51.9035 17.1268 50.4021 17.1268 48.5485V25.0634Z" fill="#FFD176"></path>
  <path d="M38.9343 35.1284C38.9343 32.3538 36.6764 30.0959 33.9018 30.0959C31.1272 30.0959 28.8693 32.3538 28.8693 35.1284C28.8693 37.6161 30.6877 39.6744 33.063 40.0754V46.0322C33.063 46.4952 33.4388 46.8709 33.9018 46.8709C34.3648 46.8709 34.7405 46.4952 34.7405 46.0322V40.0754C37.1159 39.6728 38.9343 37.6161 38.9343 35.1284ZM33.9018 38.4834C32.0515 38.4834 30.5468 36.9787 30.5468 35.1284C30.5468 33.2781 32.0515 31.7734 33.9018 31.7734C35.7521 31.7734 37.2568 33.2781 37.2568 35.1284C37.2568 36.9787 35.7521 38.4834 33.9018 38.4834Z" fill="#001B41"></path>
  <path d="M42.2892 25.0634H40.6117V21.7083C40.6117 18.0078 37.6023 14.9983 33.9017 14.9983C30.2011 14.9983 27.1917 18.0078 27.1917 21.7083V25.0634H25.5142V21.7083C25.5142 17.0835 29.2768 13.3208 33.9017 13.3208C38.5266 13.3208 42.2892 17.0835 42.2892 21.7083V25.0634Z" fill="black"></path>
  <path d="M34.2534 68.9826V217.978C34.2534 222.396 37.8351 225.978 42.2534 225.978H113.702" stroke="#EF8300"></path>
  <path d="M34.2533 70.4099C35.5671 70.4099 36.6321 69.3449 36.6321 68.0312C36.6321 66.7175 35.5671 65.6525 34.2533 65.6525C32.9396 65.6525 31.8746 66.7175 31.8746 68.0312C31.8746 69.3449 32.9396 70.4099 34.2533 70.4099Z" fill="#F2F5F8" stroke="#EF8300"></path>
  <defs>
    <filter id="filter0_d_563_528" x="65.6337" y="27.8168" width="374.923" height="258.841" filterUnits="userSpaceOnUse" color-interpolation-filters="sRGB">
      <feFlood flood-opacity="0" result="BackgroundImageFix"></feFlood>
      <feColorMatrix in="SourceAlpha" type="matrix" values="0 0 0 0 0 0 0 0 0 0 0 0 0 0 0 0 0 0 127 0" result="hardAlpha"></feColorMatrix>
      <feOffset dy="5"></feOffset>
      <feGaussianBlur stdDeviation="10"></feGaussianBlur>
      <feColorMatrix type="matrix" values="0 0 0 0 0.00784314 0 0 0 0 0.0627451 0 0 0 0 0.168627 0 0 0 0.15 0"></feColorMatrix>
      <feBlend mode="normal" in2="BackgroundImageFix" result="effect1_dropShadow_563_528"></feBlend>
      <feBlend mode="normal" in="SourceGraphic" in2="effect1_dropShadow_563_528" result="shape"></feBlend>
    </filter>
    <filter id="filter1_d_563_528" x="127.48" y="53.5069" width="338.766" height="93.2831" filterUnits="userSpaceOnUse" color-interpolation-filters="sRGB">
      <feFlood flood-opacity="0" result="BackgroundImageFix"></feFlood>
      <feColorMatrix in="SourceAlpha" type="matrix" values="0 0 0 0 0 0 0 0 0 0 0 0 0 0 0 0 0 0 127 0" result="hardAlpha"></feColorMatrix>
      <feOffset dy="5"></feOffset>
      <feGaussianBlur stdDeviation="10"></feGaussianBlur>
      <feColorMatrix type="matrix" values="0 0 0 0 0.00784314 0 0 0 0 0.0627451 0 0 0 0 0.168627 0 0 0 0.25 0"></feColorMatrix>
      <feBlend mode="normal" in2="BackgroundImageFix" result="effect1_dropShadow_563_528"></feBlend>
      <feBlend mode="normal" in="SourceGraphic" in2="effect1_dropShadow_563_528" result="shape"></feBlend>
    </filter>
  </defs>
</svg>
