<svg width="49" height="48" viewBox="0 0 49 48" fill="none" xmlns="http://www.w3.org/2000/svg">
<g clip-path="url(#clip0_1291_8944)">
<path d="M5.33325 9C5.33325 6.791 7.12425 5 9.33325 5H37.3333V9H33.3333V43H5.33325V9Z" fill="#95CAEB"/>
<path d="M37.3333 5C35.1243 5 33.3333 6.791 33.3333 9H41.3333C41.3333 6.791 39.5423 5 37.3333 5Z" fill="#1474C4"/>
<path d="M19.8333 28H8.83325C8.55725 28 8.33325 27.776 8.33325 27.5C8.33325 27.224 8.55725 27 8.83325 27H19.8333C20.1093 27 20.3333 27.224 20.3333 27.5C20.3333 27.776 20.1093 28 19.8333 28ZM20.3333 31.5C20.3333 31.224 20.1093 31 19.8333 31H8.83325C8.55725 31 8.33325 31.224 8.33325 31.5C8.33325 31.776 8.55725 32 8.83325 32H19.8333C20.1093 32 20.3333 31.776 20.3333 31.5ZM20.3333 35.5C20.3333 35.224 20.1093 35 19.8333 35H8.83325C8.55725 35 8.33325 35.224 8.33325 35.5C8.33325 35.776 8.55725 36 8.83325 36H19.8333C20.1093 36 20.3333 35.776 20.3333 35.5Z" fill="#001B41"/>
<path d="M23.3333 27H43.3333V41C43.3333 42.105 42.4383 43 41.3333 43H25.3333C24.2283 43 23.3333 42.105 23.3333 41V27Z" fill="#1474C4"/>
<path d="M36.3333 33C36.3333 31.346 34.9873 30 33.3333 30C31.6793 30 30.3333 31.346 30.3333 33C30.3333 34.483 31.4173 35.71 32.8333 35.949V39.5C32.8333 39.776 33.0573 40 33.3333 40C33.6093 40 33.8333 39.776 33.8333 39.5V35.949C35.2493 35.709 36.3333 34.483 36.3333 33ZM33.3333 35C32.2303 35 31.3333 34.103 31.3333 33C31.3333 31.897 32.2303 31 33.3333 31C34.4363 31 35.3333 31.897 35.3333 33C35.3333 34.103 34.4363 35 33.3333 35Z" fill="white"/>
<path d="M38.3333 27H37.3333V25C37.3333 22.794 35.5393 21 33.3333 21C31.1273 21 29.3333 22.794 29.3333 25V27H28.3333V25C28.3333 22.243 30.5763 20 33.3333 20C36.0903 20 38.3333 22.243 38.3333 25V27Z" fill="#001B41"/>
<path d="M8.33328 16.422L9.31228 16.062C9.60128 16.692 10.1713 17.122 10.9203 17.122C11.6803 17.122 12.1903 16.752 12.1903 16.042C12.1903 15.282 11.4303 15.013 10.6113 14.723C9.64128 14.373 8.57228 13.994 8.57228 12.714C8.57228 11.725 9.38228 10.885 10.8013 10.885C11.9903 10.885 12.7203 11.475 12.9593 12.274L12.0003 12.594C11.8303 12.195 11.4003 11.885 10.7213 11.885C10.0513 11.885 9.65228 12.195 9.65228 12.724C9.65228 13.294 10.3013 13.524 11.0613 13.784C12.0703 14.154 13.2703 14.584 13.2703 16.033C13.2703 17.372 12.2303 18.122 10.8803 18.122C9.63128 18.122 8.68228 17.462 8.33228 16.423L8.33328 16.422ZM14.3733 16.422L15.3523 16.062C15.6413 16.692 16.2113 17.122 16.9603 17.122C17.7203 17.122 18.2303 16.752 18.2303 16.042C18.2303 15.282 17.4703 15.013 16.6513 14.723C15.6813 14.373 14.6123 13.994 14.6123 12.714C14.6123 11.725 15.4223 10.885 16.8413 10.885C18.0293 10.885 18.7603 11.475 18.9993 12.274L18.0403 12.594C17.8703 12.195 17.4403 11.885 16.7613 11.885C16.0913 11.885 15.6923 12.195 15.6923 12.724C15.6923 13.294 16.3413 13.524 17.1013 13.784C18.1103 14.154 19.3093 14.584 19.3093 16.033C19.3093 17.372 18.2703 18.122 16.9203 18.122C15.6713 18.122 14.7223 17.462 14.3723 16.423L14.3733 16.422ZM20.8123 11.005H21.8513V17.002H25.2703V18.002H20.8123V11.005Z" fill="#001B41"/>
</g>
<defs>
<clipPath id="clip0_1291_8944">
<rect width="48" height="48" fill="white" transform="translate(0.333252)"/>
</clipPath>
</defs>
</svg>
