<svg width="48" height="48" viewBox="0 0 48 48" fill="none" xmlns="http://www.w3.org/2000/svg">
<g clip-path="url(#clip0_1291_8117)">
<path d="M24 25C30.075 25 35 20.075 35 14H13C13 20.075 17.925 25 24 25Z" fill="#95CAEB"/>
<path d="M43 43H5C5 32.412 12.235 27 24 27C35.765 27 43 32.412 43 43Z" fill="#1474C4"/>
<path d="M34.5 35H29.5C29.224 35 29 34.776 29 34.5C29 34.224 29.224 34 29.5 34H34.5C34.776 34 35 34.224 35 34.5C35 34.776 34.776 35 34.5 35Z" fill="white"/>
<path d="M35 14H13C13 7.925 17.925 3 24 3C30.075 3 35 7.925 35 14Z" fill="#001B41"/>
<path d="M37 11C36.448 11 36 11.448 36 12V17.5C36 19.43 34.43 21 32.5 21H28.908C28.701 20.419 28.152 20 27.5 20H26.5C25.672 20 25 20.672 25 21.5C25 22.328 25.672 23 26.5 23H27.5C28.152 23 28.702 22.581 28.908 22H32.5C34.981 22 37 19.981 37 17.5V17C37.552 17 38 16.552 38 16V12C38 11.448 37.552 11 37 11Z" fill="#001B41"/>
</g>
<defs>
<clipPath id="clip0_1291_8117">
<rect width="48" height="48" fill="white"/>
</clipPath>
</defs>
</svg>
