<svg id="Ebene_1" data-name="Ebene 1" xmlns="http://www.w3.org/2000/svg" viewBox="0 0 254.82 150"><defs><style>.cls-1{fill:#1c2f76;}</style></defs><title>Logo_visa</title><path class="cls-1" d="M126.83,50.88,116.48,99.24H104l10.35-48.36Zm52.63,31.23L186.05,64l3.79,18.16Zm14,17.13H205l-10.1-48.36H184.21a5.69,5.69,0,0,0-5.32,3.55L160.12,99.24h13.13L175.86,92h16l1.51,7.22ZM160.77,83.45c0-12.76-17.65-13.46-17.53-19.16,0-1.74,1.69-3.58,5.31-4.06a23.64,23.64,0,0,1,12.33,2.17l2.2-10.26A33.71,33.71,0,0,0,151.38,50c-12.37,0-21.07,6.57-21.15,16-.07,7,6.22,10.84,11,13.16s6.51,3.89,6.49,6c0,3.24-3.89,4.67-7.49,4.73a26.09,26.09,0,0,1-12.85-3.06l-2.27,10.6C128,98.77,133.39,99.94,139,100c13.14,0,21.74-6.49,21.78-16.55M109,50.88,88.69,99.24H75.46l-10-38.59c-.61-2.38-1.14-3.25-3-4.25a52.3,52.3,0,0,0-12.34-4.11l.3-1.41H71.76a5.82,5.82,0,0,1,5.76,4.93l5.27,28,13-32.92Z"/></svg>